<!--?xml version="1.0" standalone="no"?-->
              <svg id="sw-js-blob-svg" viewBox="0 0 100 100" xmlns="http://www.w3.org/2000/svg" version="1.1">
                    <defs> 
                        <linearGradient id="sw-gradient" x1="0" x2="1" y1="1" y2="0">
                            <stop id="stop1" stop-color="rgba(248, 225.354, 55, 1)" offset="0%"></stop>
                            <stop id="stop2" stop-color="rgba(251, 168, 31, 1)" offset="100%"></stop>
                        </linearGradient>
                    </defs>
                <path fill="url(#sw-gradient)" d="M24.5,-30.2C31.5,-23.3,36.7,-15.4,38.6,-6.6C40.4,2.2,38.8,11.8,34.1,19.5C29.5,27.2,21.8,33,13,36.4C4.3,39.7,-5.5,40.8,-14.5,38.2C-23.6,35.6,-31.9,29.4,-37.2,21.1C-42.6,12.7,-44.9,2.2,-42.3,-6.5C-39.7,-15.3,-32,-22.2,-24.2,-28.9C-16.3,-35.6,-8.1,-42.1,0.3,-42.5C8.8,-42.8,17.5,-37.1,24.5,-30.2Z" width="100%" height="100%" transform="translate(50 50)" stroke-width="0" style="transition: 0.3s;"></path>
              </svg>